<?xml version="1.0" encoding="UTF-8" standalone="no"?>
<!DOCTYPE svg PUBLIC "-//W3C//DTD SVG 1.1//EN" "http://www.w3.org/Graphics/SVG/1.1/DTD/svg11.dtd">
<svg version="1.1" xmlns="http://www.w3.org/2000/svg" xmlns:xlink="http://www.w3.org/1999/xlink" preserveAspectRatio="xMidYMid meet" viewBox="0 0 66 66" width="66" height="66"><defs><path d="M13.49 8.27C-0.5 19.07 -3.08 39.17 7.72 53.16C18.52 67.14 38.62 69.73 52.61 58.92C52.61 58.92 52.61 58.92 52.62 58.92C66.6 48.11 69.18 28.02 58.38 14.04C47.57 0.05 27.48 -2.53 13.49 8.27Z" id="a26gkQv5mG"></path><path d="M31.3 34.99C29.01 32.64 27.74 31.33 27.49 31.07C40.77 17.79 42.1 18.99 44.79 21.39C44.79 21.39 40.3 25.92 31.3 34.99Z" id="a2pYdqnWRC"></path><path d="M30.98 35.23C30.6 34.84 27.52 31.77 27.14 31.39C26.96 31.2 26.96 30.91 27.14 30.72C40.23 17.63 42.02 18.24 45.11 21.04C45.22 21.12 45.28 21.25 45.27 21.39C45.29 21.52 45.24 21.65 45.14 21.73C43.79 23.08 33 33.88 31.65 35.23C31.55 35.32 31.43 35.36 31.3 35.36C31.18 35.36 31.07 35.31 30.98 35.23ZM31.3 34.21C38.98 26.53 43.25 22.27 44.1 21.41C43.18 20.27 41.55 19.99 40.31 20.77C37.99 21.81 34.26 24.99 28.15 31.07C28.57 31.49 29.62 32.54 31.3 34.21Z" id="d5P9XwxgQ"></path><path d="M31.49 34.99C39.58 26.99 44.08 22.54 44.98 21.65C48.61 25.2 43.22 31.12 35.17 38.75C35.17 38.75 33.94 37.49 31.49 34.99Z" id="bie8QXz4"></path><path d="M34.85 39.1C34.47 38.73 31.46 35.78 31.09 35.42C31.03 35.28 31.03 35.12 31.09 34.99C31.05 34.88 31.05 34.75 31.09 34.64C32.44 33.29 43.23 22.5 44.58 21.15C44.78 20.97 45.08 20.97 45.27 21.15C46.16 21.96 46.64 23.12 46.61 24.32C46.61 27.92 42.5 32.45 35.51 39.07C35.42 39.16 35.3 39.22 35.17 39.23C35.05 39.22 34.94 39.17 34.85 39.1ZM32.18 34.99C33.99 36.8 34.99 37.8 35.19 38C40.53 32.96 45.62 27.76 45.65 24.24C45.68 23.49 45.43 22.76 44.95 22.19C43.25 23.89 38.99 28.16 32.18 34.99Z" id="f1OpLDSuW"></path><path d="M30.26 33.82C30.33 33.87 30.33 33.97 30.27 34.04C30.27 34.05 30.27 34.05 30.26 34.06C29.7 34.18 25.2 35.14 24.63 35.26C24.4 35.31 24.16 35.19 24.05 34.98C23.94 34.77 23.98 34.51 24.15 34.35C24.48 34.02 27.11 31.42 27.43 31.1C27.43 31.1 27.54 31.1 27.59 31.15C28.13 31.68 29.99 33.55 30.26 33.82Z" id="g9aSpxuyU"></path><path d="M24.5 35.79C24.14 35.78 23.81 35.59 23.62 35.28C23.41 34.88 23.49 34.39 23.81 34.08C24.13 33.75 26.73 31.13 27.06 30.8C27.3 30.58 27.67 30.58 27.91 30.8C28.18 31.07 30.31 33.2 30.58 33.47C30.74 33.62 30.8 33.85 30.74 34.06C30.68 34.27 30.5 34.43 30.29 34.48C29.91 34.56 28.04 34.96 24.66 35.68C24.57 35.74 24.52 35.77 24.5 35.79ZM27.49 31.73L24.47 34.75L29.46 33.68L27.49 31.73Z" id="a4boOn8f"></path><path d="M51.97 13.89C50.04 12.03 47.01 11.95 44.98 13.71C42.96 15.47 42.61 18.48 44.19 20.65C45.76 22.82 48.73 23.43 51.03 22.05C50.79 21.81 49.58 20.6 47.41 18.43C49.84 16.01 51.36 14.5 51.97 13.89Z" id="b12s8mVxNB"></path><path d="M43.21 19.77C42.35 17.67 42.83 15.27 44.41 13.65C46.63 11.47 50.19 11.47 52.41 13.65C52.51 13.74 52.57 13.87 52.57 14C52.57 14.13 52.51 14.26 52.41 14.35C52.12 14.62 50.68 15.98 48.09 18.43C50.06 20.36 51.15 21.44 51.37 21.66C51.48 21.76 51.53 21.91 51.5 22.06C51.49 22.2 51.41 22.32 51.29 22.4C50.41 22.95 49.4 23.26 48.36 23.28C46.1 23.25 44.07 21.87 43.21 19.77ZM44.05 15.83C43.34 17.58 43.73 19.59 45.06 20.93C46.42 22.3 48.46 22.69 50.23 21.92C49.92 21.61 47.4 19.09 47.09 18.77C46.98 18.69 46.92 18.56 46.93 18.43C46.93 18.3 46.99 18.18 47.09 18.11C47.5 17.69 50.83 14.34 51.25 13.92C50.42 13.28 49.41 12.94 48.37 12.93C46.47 12.94 44.77 14.09 44.05 15.83Z" id="h2iRHuLvBs"></path><path d="M47.49 18.51C49.66 20.68 50.87 21.89 51.11 22.13C51.48 21.92 51.82 21.67 52.13 21.39C54.1 19.29 54.07 16.02 52.05 13.97C51.44 14.58 49.92 16.09 47.49 18.51Z" id="hC0vMqDhD"></path><path d="M50.4 22.46C50.03 22.1 47.13 19.19 46.77 18.83C46.66 18.75 46.6 18.62 46.61 18.48C46.61 18.36 46.67 18.24 46.77 18.16C47.22 17.72 50.85 14.16 51.3 13.71C51.45 13.49 51.75 13.43 51.97 13.58C52.02 13.61 52.07 13.66 52.1 13.71C54.31 15.88 54.35 19.42 52.18 21.63C52.16 21.66 52.13 21.69 52.1 21.71C51.79 22.04 51.43 22.33 51.03 22.56C50.93 22.61 50.82 22.62 50.71 22.59C50.59 22.6 50.48 22.55 50.4 22.46ZM47.78 18.49C49.59 20.29 50.59 21.3 50.8 21.5C51 21.35 51.2 21.19 51.38 21.02C52.27 20.14 52.77 18.94 52.77 17.69C52.77 16.57 52.36 15.48 51.62 14.65C51.11 15.16 49.83 16.44 47.78 18.49Z" id="bt49XGszW"></path><path d="M42.69 21.95C41.88 22.75 37.85 26.77 30.61 34L32.61 36.03C40.27 29.31 44.53 25.57 45.38 24.83C45.78 24.45 46 23.93 45.99 23.38C45.98 22.83 45.75 22.32 45.35 21.95C44.6 21.24 43.44 21.24 42.69 21.95Z" id="a9bDN6Tm01"></path><path d="M32.18 36.38C31.98 36.17 30.36 34.55 30.15 34.35C29.97 34.16 29.97 33.87 30.15 33.68C31.36 32.48 41.03 22.86 42.23 21.65C43.19 20.7 44.74 20.7 45.7 21.65C46.18 22.13 46.44 22.79 46.42 23.47C46.39 24.14 46.09 24.77 45.59 25.23C44.32 26.35 34.1 35.31 32.82 36.43C32.73 36.49 32.61 36.52 32.5 36.51C32.38 36.51 32.27 36.46 32.18 36.38ZM31.09 34L32.42 35.36C39.94 28.82 44.12 25.18 44.95 24.45C45.26 24.18 45.45 23.8 45.46 23.39C45.47 22.98 45.31 22.57 45.01 22.29C44.42 21.71 43.48 21.71 42.9 22.29C41.32 23.85 37.39 27.76 31.09 34Z" id="ce2E1BZQL"></path><path d="M21.25 48.05C21.3 48.29 21.73 50.14 21.78 50.37C21.83 50.65 21.69 50.93 21.45 51.07C21.2 51.22 20.9 51.19 20.69 51C20.44 50.76 19.22 49.59 17.03 47.48L28.42 36L32.37 36C33.97 37.6 34.86 38.49 35.03 38.67C30.87 42.3 26.23 45.36 21.25 47.73C21.18 47.83 21.18 47.96 21.25 48.05Z" id="c6AL06WLd"></path><path d="M21.01 51.65C20.71 51.65 20.41 51.52 20.21 51.31C19.86 50.96 17.06 48.16 16.71 47.81C16.61 47.73 16.55 47.6 16.55 47.47C16.56 47.34 16.62 47.23 16.71 47.15C17.86 46 27.03 36.8 28.18 35.65C28.24 35.59 28.33 35.54 28.42 35.52C28.82 35.52 32 35.52 32.39 35.52C32.5 35.48 32.61 35.48 32.71 35.52C32.98 35.79 35.11 37.92 35.38 38.19C35.48 38.28 35.53 38.42 35.51 38.56C35.52 38.7 35.46 38.82 35.35 38.91C35.33 38.93 35.16 39.08 35.14 39.1C30.96 42.58 26.37 45.52 21.46 47.87C21.51 48.08 21.92 49.81 21.97 50.03C22.11 50.65 21.73 51.27 21.11 51.41C21.03 51.43 20.95 51.44 20.87 51.44C20.9 51.48 20.98 51.61 21.01 51.65ZM17.75 47.47C19.64 49.37 20.69 50.43 20.9 50.64C20.96 50.69 21.05 50.69 21.11 50.64C21.15 50.58 21.15 50.51 21.11 50.45C21.06 50.22 20.63 48.37 20.58 48.13C20.49 47.79 20.66 47.43 20.98 47.28C25.76 44.97 30.23 42.08 34.31 38.69C34.17 38.55 33.44 37.82 32.13 36.51L28.55 36.51L17.75 47.47Z" id="admj0YK4M"></path><path d="M16.95 47.55L21.06 51.65C17.14 51.38 14.96 51.23 14.53 51.2C14.3 51.18 14.1 51.02 14.05 50.79C13.99 50.57 14.09 50.33 14.29 50.22C14.29 50.21 15.18 49.33 16.95 47.55Z" id="c2WAKZTST8"></path><path d="M14.63 51.6C14.25 51.57 13.92 51.3 13.78 50.95C13.64 50.6 13.73 50.18 13.99 49.89C14.26 49.63 16.39 47.49 16.66 47.23C16.85 47.05 17.14 47.05 17.33 47.23C17.74 47.64 21 50.9 21.41 51.31C21.52 51.47 21.52 51.68 21.41 51.84C21.35 51.94 21.25 52.01 21.14 52.05C21.14 52.05 15.28 51.65 14.63 51.6ZM14.63 50.56L19.97 50.91L17.03 48.16L14.63 50.56Z" id="asef7GF8h"></path><path d="M32.74 36.32L27.35 37.15L30.47 34.06L32.74 36.32Z" id="bBpqYfjFf"></path><path d="M26.93 37.39C26.81 37.23 26.81 37.01 26.93 36.85C27.24 36.54 29.71 34.05 30.02 33.73C30.21 33.55 30.52 33.55 30.71 33.73C30.94 33.96 32.75 35.77 32.98 36C33.07 36.15 33.07 36.33 32.98 36.48C32.93 36.66 32.79 36.79 32.61 36.83C32.25 36.88 30.47 37.16 27.27 37.65C27.09 37.59 26.98 37.5 26.93 37.39ZM30.47 34.75L28.74 36.48L31.73 36.03L30.47 34.75Z" id="ckQi5SnTT"></path><path d="M32.74 36.32C30.48 36.61 29.23 36.77 28.98 36.8C28.72 36.86 28.46 36.7 28.41 36.44C28.37 36.28 28.42 36.12 28.53 36C28.66 35.87 29.31 35.22 30.47 34.05L32.74 36.32Z" id="a1HiAfdB4W"></path><path d="M28.76 37.28C28.41 37.27 28.08 37.08 27.91 36.77C27.7 36.39 27.77 35.93 28.07 35.62C28.27 35.43 29.82 33.87 30.02 33.68C30.21 33.49 30.52 33.49 30.71 33.68C30.94 33.9 32.75 35.72 32.98 35.94C33.17 36.13 33.18 36.43 33 36.62C32.92 36.71 32.8 36.76 32.69 36.77C32.44 36.8 31.19 36.96 28.95 37.25C28.85 37.26 28.79 37.27 28.76 37.28ZM31.59 35.94L30.34 34.69L28.74 36.29L31.59 35.94ZM51.46 16.85C51.37 16.89 51.3 16.97 51.27 17.07C51.24 17.16 51.25 17.27 51.3 17.36C51.48 17.75 51.43 18.21 51.16 18.56C51.09 18.62 51.06 18.71 51.06 18.81C51.07 18.9 51.1 18.99 51.16 19.06C51.23 19.09 51.31 19.09 51.38 19.06C51.5 19.09 51.64 19.05 51.72 18.96C52.17 18.41 52.27 17.65 51.96 17.01C51.86 16.84 51.64 16.77 51.46 16.85Z" id="fe59p9OsV"></path></defs><g><g><g><use xlink:href="#a26gkQv5mG" opacity="1" fill="#c3c5c8" fill-opacity="1"></use><g><use xlink:href="#a26gkQv5mG" opacity="1" fill-opacity="0" stroke="#000000" stroke-width="1" stroke-opacity="0"></use></g></g><g><use xlink:href="#a2pYdqnWRC" opacity="1" fill="#343e48" fill-opacity="1"></use><g><use xlink:href="#a2pYdqnWRC" opacity="1" fill-opacity="0" stroke="#000000" stroke-width="1" stroke-opacity="0"></use></g></g><g><use xlink:href="#d5P9XwxgQ" opacity="1" fill="#c3c5c8" fill-opacity="1"></use><g><use xlink:href="#d5P9XwxgQ" opacity="1" fill-opacity="0" stroke="#000000" stroke-width="1" stroke-opacity="0"></use></g></g><g><use xlink:href="#bie8QXz4" opacity="1" fill="#343e48" fill-opacity="1"></use><g><use xlink:href="#bie8QXz4" opacity="1" fill-opacity="0" stroke="#000000" stroke-width="1" stroke-opacity="0"></use></g></g><g><use xlink:href="#f1OpLDSuW" opacity="1" fill="#c3c5c8" fill-opacity="1"></use><g><use xlink:href="#f1OpLDSuW" opacity="1" fill-opacity="0" stroke="#000000" stroke-width="1" stroke-opacity="0"></use></g></g><g><use xlink:href="#g9aSpxuyU" opacity="1" fill="#343e48" fill-opacity="1"></use><g><use xlink:href="#g9aSpxuyU" opacity="1" fill-opacity="0" stroke="#000000" stroke-width="1" stroke-opacity="0"></use></g></g><g><use xlink:href="#a4boOn8f" opacity="1" fill="#c3c5c8" fill-opacity="1"></use><g><use xlink:href="#a4boOn8f" opacity="1" fill-opacity="0" stroke="#000000" stroke-width="1" stroke-opacity="0"></use></g></g><g><use xlink:href="#b12s8mVxNB" opacity="1" fill="#343e48" fill-opacity="1"></use><g><use xlink:href="#b12s8mVxNB" opacity="1" fill-opacity="0" stroke="#000000" stroke-width="1" stroke-opacity="0"></use></g></g><g><use xlink:href="#h2iRHuLvBs" opacity="1" fill="#c3c5c8" fill-opacity="1"></use><g><use xlink:href="#h2iRHuLvBs" opacity="1" fill-opacity="0" stroke="#000000" stroke-width="1" stroke-opacity="0"></use></g></g><g><use xlink:href="#hC0vMqDhD" opacity="1" fill="#343e48" fill-opacity="1"></use><g><use xlink:href="#hC0vMqDhD" opacity="1" fill-opacity="0" stroke="#000000" stroke-width="1" stroke-opacity="0"></use></g></g><g><use xlink:href="#bt49XGszW" opacity="1" fill="#c3c5c8" fill-opacity="1"></use><g><use xlink:href="#bt49XGszW" opacity="1" fill-opacity="0" stroke="#000000" stroke-width="1" stroke-opacity="0"></use></g></g><g><use xlink:href="#a9bDN6Tm01" opacity="1" fill="#343e48" fill-opacity="1"></use><g><use xlink:href="#a9bDN6Tm01" opacity="1" fill-opacity="0" stroke="#000000" stroke-width="1" stroke-opacity="0"></use></g></g><g><use xlink:href="#ce2E1BZQL" opacity="1" fill="#c3c5c8" fill-opacity="1"></use><g><use xlink:href="#ce2E1BZQL" opacity="1" fill-opacity="0" stroke="#000000" stroke-width="1" stroke-opacity="0"></use></g></g><g><use xlink:href="#c6AL06WLd" opacity="1" fill="#343e48" fill-opacity="1"></use><g><use xlink:href="#c6AL06WLd" opacity="1" fill-opacity="0" stroke="#000000" stroke-width="1" stroke-opacity="0"></use></g></g><g><use xlink:href="#admj0YK4M" opacity="1" fill="#c3c5c8" fill-opacity="1"></use><g><use xlink:href="#admj0YK4M" opacity="1" fill-opacity="0" stroke="#000000" stroke-width="1" stroke-opacity="0"></use></g></g><g><use xlink:href="#c2WAKZTST8" opacity="1" fill="#343e48" fill-opacity="1"></use><g><use xlink:href="#c2WAKZTST8" opacity="1" fill-opacity="0" stroke="#000000" stroke-width="1" stroke-opacity="0"></use></g></g><g><use xlink:href="#asef7GF8h" opacity="1" fill="#c3c5c8" fill-opacity="1"></use><g><use xlink:href="#asef7GF8h" opacity="1" fill-opacity="0" stroke="#000000" stroke-width="1" stroke-opacity="0"></use></g></g><g><use xlink:href="#bBpqYfjFf" opacity="1" fill="#ffffff" fill-opacity="1"></use><g><use xlink:href="#bBpqYfjFf" opacity="1" fill-opacity="0" stroke="#000000" stroke-width="1" stroke-opacity="0"></use></g></g><g><use xlink:href="#ckQi5SnTT" opacity="1" fill="#343e48" fill-opacity="1"></use><g><use xlink:href="#ckQi5SnTT" opacity="1" fill-opacity="0" stroke="#000000" stroke-width="1" stroke-opacity="0"></use></g></g><g><use xlink:href="#a1HiAfdB4W" opacity="1" fill="#343e48" fill-opacity="1"></use><g><use xlink:href="#a1HiAfdB4W" opacity="1" fill-opacity="0" stroke="#000000" stroke-width="1" stroke-opacity="0"></use></g></g><g><use xlink:href="#fe59p9OsV" opacity="1" fill="#c3c5c8" fill-opacity="1"></use><g><use xlink:href="#fe59p9OsV" opacity="1" fill-opacity="0" stroke="#000000" stroke-width="1" stroke-opacity="0"></use></g></g></g></g></svg>