<svg width="14px" height="14px" viewBox="0 0 14 14" version="1.1" xmlns="http://www.w3.org/2000/svg">
        <g stroke="none" stroke-width="1" >
            <g transform="translate(-1107.000000, -50.000000)">
                <g transform="translate(3.000000, 30.000000)">
                    <g transform="translate(0.000000, 19.000000)">
                        <g transform="translate(1104.000000, 1.000000)">
                            <g id="view-horizontal">
                                <path
                                    d="M10,8 L11,8 C11,7.44772 10.5523,7 10,7 L10,8 Z M4,8 L4,7 C3.44772,7 3,7.44772 3,8 L4,8 Z M4,10 L3,10 C3,10.5523 3.44772,11 4,11 L4,10 Z M10,10 L10,11 C10.5523,11 11,10.5523 11,10 L10,10 Z M1,1 L1,0 C0.44772,0 0,0.44772 0,1 L1,1 Z M13,1 L14,1 C14,0.44772 13.5523,0 13,0 L13,1 Z M13,13 L13,14 C13.5523,14 14,13.5523 14,13 L13,13 Z M1,13 L0,13 C0,13.5523 0.44772,14 1,14 L1,13 Z M10,7 L4,7 L4,9 L10,9 L10,7 Z M3,8 L3,10 L5,10 L5,8 L3,8 Z M4,11 L10,11 L10,9 L4,9 L4,11 Z M11,10 L11,8 L9,8 L9,10 L11,10 Z M1,2 L13,2 L13,0 L1,0 L1,2 Z M12,1 L12,13 L14,13 L14,1 L12,1 Z M13,12 L1,12 L1,14 L13,14 L13,12 Z M2,13 L2,1 L0,1 L0,13 L2,13 Z"
                                    id="Shape"
                                ></path>
                            </g>
                        </g>
                    </g>
                </g>
            </g>
        </g>
    </svg>